<svg xmlns="http://www.w3.org/2000/svg" xmlns:xlink="http://www.w3.org/1999/xlink" width="200" zoomAndPan="magnify" viewBox="0 0 150 149.999998" height="200" preserveAspectRatio="xMidYMid meet" version="1.0"><defs><g/><clipPath id="ba1e4064d9"><path d="M 15 15 L 134.90625 15 L 134.90625 134.90625 L 15 134.90625 Z M 15 15 " clip-rule="nonzero"/></clipPath><clipPath id="0393a9af1b"><path d="M 127.109375 134.90625 L 22.796875 134.90625 C 18.5 134.90625 15 131.40625 15 127.109375 L 15 22.796875 C 15 18.5 18.5 15 22.796875 15 L 127.109375 15 C 131.40625 15 134.90625 18.5 134.90625 22.796875 L 134.90625 127.109375 C 134.90625 131.40625 131.40625 134.90625 127.109375 134.90625 Z M 127.109375 134.90625 " clip-rule="nonzero"/></clipPath><clipPath id="0d53dc1f7f"><path d="M 34.101562 51.402344 L 115.695312 51.402344 L 115.695312 121.402344 L 34.101562 121.402344 Z M 34.101562 51.402344 " clip-rule="nonzero"/></clipPath><clipPath id="180f0acc9f"><path d="M 34.101562 28.464844 L 115.695312 28.464844 L 115.695312 60 L 34.101562 60 Z M 34.101562 28.464844 " clip-rule="nonzero"/></clipPath></defs><rect x="-15" width="180" fill="#ffffff" y="-15" height="179.999997" fill-opacity="1"/><rect x="-15" width="180" fill="#fffdf6" y="-15" height="179.999997" fill-opacity="1"/><g clip-path="url(#ba1e4064d9)"><g clip-path="url(#0393a9af1b)"><path fill="#173753" d="M 15 15 L 134.90625 15 L 134.90625 134.90625 L 15 134.90625 Z M 15 15 " fill-opacity="1" fill-rule="nonzero"/></g></g><g clip-path="url(#0d53dc1f7f)"><path fill="#fffdf6" d="M 115.269531 51.683594 L 115.824219 97.960938 L 77.054688 120.972656 C 76.105469 121.535156 74.933594 121.546875 73.972656 121.007812 L 34.65625 98.9375 L 34.101562 52.660156 L 47.082031 59.949219 L 47.085938 59.949219 L 47.460938 91.335938 L 73.792969 106.121094 C 74.753906 106.660156 75.925781 106.644531 76.875 106.085938 L 102.84375 90.671875 L 102.460938 58.992188 L 102.71875 59.132812 L 115.269531 51.683594 " fill-opacity="1" fill-rule="nonzero"/></g><g clip-path="url(#180f0acc9f)"><path fill="#fffdf6" d="M 34.101562 52.660156 L 72.839844 29.101562 C 73.800781 28.515625 75.003906 28.503906 75.976562 29.0625 L 115.269531 51.6875 L 102.46875 59.285156 L 76.167969 43.96875 C 75.1875 43.398438 73.972656 43.414062 73.003906 44.007812 L 47.085938 59.949219 L 34.101562 52.660156 " fill-opacity="1" fill-rule="nonzero"/></g><g fill="#fffdf6" fill-opacity="1"><g transform="translate(59.700358, 89.121825)"><g><path d="M 14.1875 -28.796875 C 16.300781 -28.796875 18.25 -28.4375 20.03125 -27.71875 C 21.8125 -27.007812 23.351562 -26.007812 24.65625 -24.71875 C 25.96875 -23.4375 26.984375 -21.921875 27.703125 -20.171875 C 28.429688 -18.429688 28.796875 -16.519531 28.796875 -14.4375 C 28.796875 -12.351562 28.429688 -10.429688 27.703125 -8.671875 C 26.984375 -6.921875 25.96875 -5.394531 24.65625 -4.09375 C 23.351562 -2.789062 21.8125 -1.78125 20.03125 -1.0625 C 18.25 -0.351562 16.300781 0 14.1875 0 L 3.296875 0 L 3.296875 -28.796875 Z M 14.03125 -5.796875 C 15.675781 -5.796875 17.128906 -6.164062 18.390625 -6.90625 C 19.648438 -7.644531 20.632812 -8.664062 21.34375 -9.96875 C 22.0625 -11.28125 22.421875 -12.769531 22.421875 -14.4375 C 22.421875 -16.113281 22.0625 -17.59375 21.34375 -18.875 C 20.632812 -20.164062 19.648438 -21.175781 18.390625 -21.90625 C 17.128906 -22.632812 15.675781 -23 14.03125 -23 L 9.546875 -23 L 9.546875 -5.796875 Z M 14.03125 -5.796875 "/></g></g></g></svg>